# xmcd CD database file
# Copyright (C) 1997 Ti Kan
# 
# Track frame offsets:
#     183
#     20005
#     34043
#     50055
#     69058
#     79933
#     96665
#     116518
#     135828
#     152150
#     169513
# 
# Disc length: 2518 seconds
# 
# Revision: 1
# Processed by: cddbd v1.4b41PL1 Copyright (c) Steve Scherf et al.
# Submitted via: DiscPlay 4.0.4
# 
DISCID=8809d40b
DTITLE=Renata Przemyk - ya hoz na
DYEAR=1900
DGENRE=
TTITLE0=Jaho zna
TTITLE1=Bab  zes a  B g
TTITLE2=Tortury
TTITLE3=Top
TTITLE4=Samolot rozbi  si  przed startem
TTITLE5=Makija  twarzy
TTITLE6=Kochaj mnie jak wariat
TTITLE7=Prins wna
TTITLE8=Hiszpa skie dzwonki
TTITLE9=Profesor dance
TTITLE10=Ob. Ereck
EXTD=
EXTT0=
EXTT1=
EXTT2=
EXTT3=
EXTT4=
EXTT5=
EXTT6=
EXTT7=
EXTT8=
EXTT9=
EXTT10=
PLAYORDER=
